<svg width="371" height="150" viewBox="0 0 371 150" fill="none" xmlns="http://www.w3.org/2000/svg">
<rect width="371" height="150" fill="url(#paint0_radial_9_394)"/>
<path d="M82.086 90.638C79.2953 90.638 77.118 89.7793 75.554 88.062C73.99 86.314 73.1927 83.968 73.162 81.024C73.162 79.4293 73.4073 77.9113 73.898 76.47C74.3887 75.0287 75.0787 73.756 75.968 72.652C76.888 71.548 77.946 70.674 79.142 70.03C80.338 69.386 81.6107 69.064 82.96 69.064C84.3093 69.064 85.5513 69.386 86.686 70.03C87.8207 70.674 88.802 71.548 89.63 72.652C90.4887 73.756 91.148 74.998 91.608 76.378C92.068 77.758 92.298 79.1993 92.298 80.702C92.298 83.002 91.884 84.888 91.056 86.36C90.228 87.8013 89.124 88.8747 87.744 89.58C86.3947 90.2853 84.9073 90.638 83.282 90.638H82.086ZM82.316 83.416H83.374C84.4473 83.416 85.2907 83.1707 85.904 82.68C86.548 82.1587 86.8547 81.392 86.824 80.38C86.824 79.0613 86.4407 77.988 85.674 77.16C84.9073 76.3013 83.9567 75.872 82.822 75.872C82.0553 75.872 81.3653 76.0867 80.752 76.516C80.1387 76.9453 79.648 77.5127 79.28 78.218C78.9427 78.8927 78.774 79.6133 78.774 80.38C78.774 81.3613 79.096 82.1127 79.74 82.634C80.384 83.1553 81.2427 83.416 82.316 83.416ZM80.062 65.108C79.878 65.292 79.6327 65.384 79.326 65.384C79.05 65.384 78.8047 65.2767 78.59 65.062L76.29 62.762C76.106 62.5473 75.9987 62.302 75.968 62.026C75.968 61.75 76.0753 61.4893 76.29 61.244L78.59 58.944C78.8047 58.7293 79.05 58.622 79.326 58.622C79.602 58.622 79.8473 58.7293 80.062 58.944L82.362 61.244C82.5767 61.4893 82.684 61.7653 82.684 62.072C82.7147 62.348 82.6227 62.5933 82.408 62.808L80.062 65.108ZM87.146 65.108C86.9313 65.3227 86.686 65.4147 86.41 65.384C86.134 65.3533 85.8887 65.246 85.674 65.062L83.328 62.762C83.144 62.5473 83.052 62.302 83.052 62.026C83.052 61.7193 83.144 61.4587 83.328 61.244L85.674 58.944C85.8887 58.7293 86.1187 58.622 86.364 58.622C86.64 58.622 86.8853 58.7293 87.1 58.944L89.4 61.244C89.6453 61.4893 89.768 61.75 89.768 62.026C89.7987 62.302 89.6913 62.5627 89.446 62.808L87.146 65.108ZM93.6212 102.092C93.1306 102.092 92.7779 101.954 92.5632 101.678C92.3486 101.433 92.2412 101.095 92.2412 100.666V96.434C92.2412 95.974 92.3792 95.6367 92.6552 95.422C92.9312 95.238 93.3146 95.146 93.8052 95.146H94.8632C97.7459 95.146 99.8159 94.41 101.073 92.938C102.331 91.466 102.959 89.4113 102.959 86.774C102.959 85.7007 102.852 84.612 102.637 83.508C102.453 82.3733 102.254 81.3 102.039 80.288L101.119 76.24C101.027 75.7187 101.073 75.3353 101.257 75.09C101.441 74.814 101.84 74.5993 102.453 74.446L105.765 73.618C106.225 73.4953 106.563 73.5107 106.777 73.664C106.992 73.7867 107.145 73.9707 107.237 74.216C107.329 74.4613 107.406 74.7373 107.467 75.044L108.755 80.104C108.939 80.8707 109.231 81.484 109.629 81.944C110.028 82.3733 110.519 82.6647 111.101 82.818C111.715 82.9713 112.42 83.048 113.217 83.048H114.091C114.582 83.048 114.827 83.278 114.827 83.738V89.396C114.827 90.316 114.367 90.776 113.447 90.776C112.343 90.776 111.347 90.6533 110.457 90.408C109.599 90.1627 109.047 89.8407 108.801 89.442C108.709 91.19 108.387 92.8153 107.835 94.318C107.283 95.8513 106.455 97.2007 105.351 98.366C104.247 99.5313 102.867 100.436 101.211 101.08C99.5859 101.755 97.6539 102.092 95.4152 102.092H93.6212ZM113.446 90.776C112.986 90.776 112.756 90.546 112.756 90.086V84.428C112.756 83.508 113.216 83.048 114.136 83.048C115.7 83.048 116.773 82.7107 117.356 82.036C117.938 81.3613 118.23 80.196 118.23 78.54V74.492C118.23 73.6333 118.628 73.204 119.426 73.204H123.52C124.317 73.204 124.716 73.6333 124.716 74.492V78.54C124.716 79.5827 124.854 80.4413 125.13 81.116C125.436 81.7907 125.942 82.2813 126.648 82.588C127.384 82.8947 128.411 83.048 129.73 83.048C130.19 83.048 130.42 83.278 130.42 83.738V89.396C130.42 90.316 129.96 90.776 129.04 90.776C126.74 90.776 124.823 90.4847 123.29 89.902C121.756 89.3193 120.668 88.246 120.024 86.682C119.533 88.154 118.69 89.212 117.494 89.856C116.328 90.4693 114.979 90.776 113.446 90.776ZM119.104 99.792C118.92 99.976 118.69 100.053 118.414 100.022C118.138 100.022 117.892 99.93 117.678 99.746L115.47 97.538C115.286 97.3233 115.178 97.078 115.148 96.802C115.148 96.526 115.255 96.296 115.47 96.112L117.678 93.904C117.892 93.6893 118.122 93.582 118.368 93.582C118.644 93.582 118.889 93.6893 119.104 93.904L121.266 96.112C121.48 96.296 121.588 96.526 121.588 96.802C121.618 97.1087 121.526 97.3693 121.312 97.584L119.104 99.792ZM125.498 99.792C125.314 99.976 125.084 100.053 124.808 100.022C124.562 100.022 124.332 99.93 124.118 99.746L121.864 97.538C121.68 97.3233 121.572 97.078 121.542 96.802C121.542 96.526 121.649 96.296 121.864 96.112L124.118 93.904C124.332 93.6893 124.562 93.582 124.808 93.582C125.053 93.582 125.268 93.6893 125.452 93.904L127.66 96.112C127.874 96.296 127.982 96.526 127.982 96.802C128.012 97.1087 127.92 97.3693 127.706 97.584L125.498 99.792ZM171.032 90.776C168.977 90.776 167.214 90.592 165.742 90.224C164.3 89.8253 163.012 89.1967 161.878 88.338L166.478 82.174C166.968 82.3887 167.444 82.5573 167.904 82.68C168.394 82.8027 168.931 82.8947 169.514 82.956C170.127 83.0173 170.863 83.048 171.722 83.048C172.182 83.048 172.412 83.278 172.412 83.738V89.396C172.412 90.316 171.952 90.776 171.032 90.776ZM129.218 90.776C128.942 90.776 128.727 90.7147 128.574 90.592C128.42 90.5 128.344 90.27 128.344 89.902V84.244C128.344 83.8147 128.466 83.508 128.712 83.324C128.957 83.14 129.294 83.048 129.724 83.048C130.797 83.048 131.61 82.9713 132.162 82.818C132.714 82.634 133.082 82.2507 133.266 81.668C133.45 81.0853 133.542 80.2113 133.542 79.046V75.964C133.542 75.1053 133.94 74.676 134.738 74.676H138.51C139.307 74.676 139.706 75.1053 139.706 75.964V78.448C139.706 79.644 139.813 80.5793 140.028 81.254C140.242 81.9287 140.672 82.404 141.316 82.68C141.96 82.9253 142.91 83.048 144.168 83.048H155.944C158.06 83.048 159.654 82.772 160.728 82.22C161.801 81.668 162.338 80.84 162.338 79.736C162.338 78.816 161.908 78.0647 161.05 77.482C160.222 76.8687 159.133 76.5773 157.784 76.608C156.434 76.6387 155.085 76.976 153.736 77.62C152.417 78.264 151.16 79.138 149.964 80.242C148.768 81.346 147.679 82.588 146.698 83.968L141.684 83.784C143.002 80.8707 144.566 78.3867 146.376 76.332C148.216 74.2773 150.194 72.7133 152.31 71.64C154.426 70.5667 156.542 70.03 158.658 70.03C160.774 70.03 162.506 70.4747 163.856 71.364C165.236 72.2227 166.263 73.342 166.938 74.722C167.612 76.102 167.95 77.574 167.95 79.138C167.95 81.5913 167.382 83.692 166.248 85.44C165.144 87.1573 163.518 88.476 161.372 89.396C159.225 90.316 156.603 90.776 153.506 90.776H144.306C142.435 90.776 140.794 90.5 139.384 89.948C138.004 89.3653 136.915 88.3533 136.118 86.912C135.504 88.384 134.554 89.396 133.266 89.948C132.008 90.5 130.659 90.776 129.218 90.776ZM171.082 90.776C170.836 90.776 170.652 90.6993 170.53 90.546C170.407 90.3927 170.346 90.2087 170.346 89.994V84.244C170.346 83.8147 170.468 83.508 170.714 83.324C170.959 83.14 171.296 83.048 171.726 83.048H172.048C173.182 83.048 174.01 82.7567 174.532 82.174C175.053 81.5607 175.314 80.61 175.314 79.322C175.314 78.954 175.283 78.5707 175.222 78.172C175.191 77.7733 175.13 77.3593 175.038 76.93L174.256 73.342C174.164 72.79 174.21 72.3913 174.394 72.146C174.608 71.9007 174.946 71.732 175.406 71.64L178.902 70.858C179.883 70.6433 180.481 71.0573 180.696 72.1L181.662 76.884C181.815 77.5587 181.922 78.2793 181.984 79.046C182.076 79.8127 182.122 80.472 182.122 81.024C182.122 83.9373 181.386 86.2987 179.914 88.108C178.442 89.8867 176.264 90.776 173.382 90.776H171.082ZM176.234 100.068C176.019 100.252 175.758 100.329 175.452 100.298C175.176 100.298 174.93 100.206 174.716 100.022L172.416 97.722C172.232 97.5073 172.14 97.262 172.14 96.986C172.14 96.71 172.232 96.4493 172.416 96.204L174.716 93.904C174.93 93.6893 175.176 93.582 175.452 93.582C175.728 93.582 175.973 93.6893 176.188 93.904L178.442 96.204C178.687 96.4493 178.81 96.71 178.81 96.986C178.84 97.262 178.748 97.5227 178.534 97.768L176.234 100.068Z" fill="#0B3A3C"/>
<path d="M292.975 37H221.078C217.178 37 214.004 40.4104 214.004 44.6019V48.1712C214.004 48.3004 214.012 48.4281 214.022 48.5544H210.429C206.528 48.5544 203.355 51.9644 203.355 56.1564V59.3735H200.074C196.174 59.3735 193 62.784 193 66.975V105.398C193 109.59 196.174 113 200.074 113H271.971C275.873 113 279.046 109.59 279.046 105.398V102.176C279.075 102.177 279.104 102.18 279.134 102.18H282.325C286.226 102.18 289.399 98.7705 289.399 94.579V90.6048C289.526 90.617 289.654 90.626 289.784 90.626H292.975C296.876 90.626 300.049 87.2156 300.049 83.0241V44.6019C300.049 40.4104 296.876 37 292.975 37Z" fill="#0B3A3C"/>
<path d="M282.325 52.5607H210.428C208.819 52.5607 207.514 53.963 207.514 55.6935V59.2623H271.555C275.734 59.2623 279.134 62.9155 279.134 67.4058V97.2479H282.325C283.935 97.2479 285.24 95.8455 285.24 94.1156V55.693C285.24 53.963 283.935 52.5607 282.325 52.5607Z" fill="#02B380"/>
<path d="M236.022 97.2978C241.97 97.2978 246.792 92.1159 246.792 85.7236C246.792 79.3313 241.97 74.1494 236.022 74.1494C230.074 74.1494 225.251 79.3313 225.251 85.7236C225.251 92.1159 230.074 97.2978 236.022 97.2978Z" fill="#69E571"/>
<path d="M271.971 63.3798H200.073C198.464 63.3798 197.159 64.7821 197.159 66.5121V104.936C197.159 106.665 198.464 108.068 200.073 108.068H271.971C273.58 108.068 274.886 106.665 274.886 104.936V66.5121C274.886 64.7821 273.58 63.3798 271.971 63.3798ZM257.75 101.802H213.263C213.083 95.3676 208.716 90.0664 202.988 88.937V82.5093C208.716 81.3799 213.083 76.0782 213.263 69.6444H257.75C258.225 76.2781 262.981 81.6198 269.056 82.4852V88.9596C262.981 89.827 258.225 95.1686 257.75 101.802Z" fill="#69E571"/>
<path d="M292.975 41.0062H221.078C219.468 41.0062 218.163 42.4086 218.163 44.1385V47.7078H282.205C286.383 47.7078 289.783 51.361 289.783 55.8518V85.6934H292.974C294.584 85.6934 295.889 84.2906 295.889 82.5606V44.1385C295.889 42.4081 294.586 41.0062 292.975 41.0062Z" fill="#008091"/>
<defs>
<radialGradient id="paint0_radial_9_394" cx="0" cy="0" r="1" gradientUnits="userSpaceOnUse" gradientTransform="translate(185.5 75) rotate(90) scale(75 185.5)">
<stop stop-color="#69E571" stop-opacity="0.25"/>
<stop offset="1" stop-color="#69E571" stop-opacity="0"/>
</radialGradient>
</defs>
</svg>
